<?xml version="1.0" encoding="UTF-8" standalone="no"?>
<!DOCTYPE svg PUBLIC "-//W3C//DTD SVG 1.1//EN"
 "http://www.w3.org/Graphics/SVG/1.1/DTD/svg11.dtd">
<!-- Generated by graphviz version 2.44.1 (20200629.0846)
 -->
<!-- Title: include/secure_debug_manager.h Pages: 1 -->
<svg width="128pt" height="95pt"
 viewBox="0.00 0.00 127.50 95.00" xmlns="http://www.w3.org/2000/svg" xmlns:xlink="http://www.w3.org/1999/xlink">
<g id="graph0" class="graph" transform="scale(1 1) rotate(0) translate(4 91)">
<title>include/secure_debug_manager.h</title>
<polygon fill="white" stroke="transparent" points="-4,4 -4,-91 123.5,-91 123.5,4 -4,4"/>
<!-- Node1 -->
<g id="node1" class="node">
<title>Node1</title>
<g id="a_node1"><a xlink:title="This header file is the entry point to Secure Debug Manager functionality and includes all necessary ...">
<polygon fill="#bfbfbf" stroke="black" points="4.5,-56.5 4.5,-86.5 115.5,-86.5 115.5,-56.5 4.5,-56.5"/>
<text text-anchor="start" x="12.5" y="-74.5" font-family="Helvetica,sans-Serif" font-size="10.00">include/secure_debug</text>
<text text-anchor="middle" x="60" y="-63.5" font-family="Helvetica,sans-Serif" font-size="10.00">_manager.h</text>
</a>
</g>
</g>
<!-- Node2 -->
<g id="node2" class="node">
<title>Node2</title>
<g id="a_node2"><a xlink:title=" ">
<polygon fill="white" stroke="#bfbfbf" points="0,-0.5 0,-19.5 52,-19.5 52,-0.5 0,-0.5"/>
<text text-anchor="middle" x="26" y="-7.5" font-family="Helvetica,sans-Serif" font-size="10.00">stddef.h</text>
</a>
</g>
</g>
<!-- Node1&#45;&gt;Node2 -->
<g id="edge1" class="edge">
<title>Node1&#45;&gt;Node2</title>
<path fill="none" stroke="midnightblue" d="M51.94,-56.4C47.15,-48.02 41.04,-37.33 35.96,-28.42"/>
<polygon fill="midnightblue" stroke="midnightblue" points="38.95,-26.6 30.95,-19.66 32.87,-30.08 38.95,-26.6"/>
</g>
<!-- Node3 -->
<g id="node3" class="node">
<title>Node3</title>
<g id="a_node3"><a xlink:title=" ">
<polygon fill="white" stroke="#bfbfbf" points="70.5,-0.5 70.5,-19.5 119.5,-19.5 119.5,-0.5 70.5,-0.5"/>
<text text-anchor="middle" x="95" y="-7.5" font-family="Helvetica,sans-Serif" font-size="10.00">stdint.h</text>
</a>
</g>
</g>
<!-- Node1&#45;&gt;Node3 -->
<g id="edge2" class="edge">
<title>Node1&#45;&gt;Node3</title>
<path fill="none" stroke="midnightblue" d="M68.29,-56.4C73.22,-48.02 79.51,-37.33 84.75,-28.42"/>
<polygon fill="midnightblue" stroke="midnightblue" points="87.85,-30.05 89.91,-19.66 81.82,-26.5 87.85,-30.05"/>
</g>
</g>
</svg>
