<?xml version="1.0" encoding="UTF-8" standalone="no"?>
<!DOCTYPE svg PUBLIC "-//W3C//DTD SVG 1.1//EN"
 "http://www.w3.org/Graphics/SVG/1.1/DTD/svg11.dtd">
<!-- Generated by graphviz version 2.44.1 (20200629.0846)
 -->
<!-- Title: SDMOpenParameters Pages: 1 -->
<svg width="254pt" height="229pt"
 viewBox="0.00 0.00 253.50 229.00" xmlns="http://www.w3.org/2000/svg" xmlns:xlink="http://www.w3.org/1999/xlink">
<g id="graph0" class="graph" transform="scale(1 1) rotate(0) translate(4 225)">
<title>SDMOpenParameters</title>
<polygon fill="white" stroke="transparent" points="-4,4 -4,-225 249.5,-225 249.5,4 -4,4"/>
<!-- Node1 -->
<g id="node1" class="node">
<title>Node1</title>
<g id="a_node1"><a xlink:title="Parameters passed to SDM_Open() by the debugger.">
<polygon fill="#bfbfbf" stroke="black" points="71,-0.5 71,-19.5 184,-19.5 184,-0.5 71,-0.5"/>
<text text-anchor="middle" x="127.5" y="-7.5" font-family="Helvetica,sans-Serif" font-size="10.00">SDMOpenParameters</text>
</a>
</g>
</g>
<!-- Node2 -->
<g id="node2" class="node">
<title>Node2</title>
<g id="a_node2"><a xlink:href="struct_s_d_m_callbacks.html" target="_top" xlink:title="Collection of common callback functions provided by the debugger.">
<polygon fill="white" stroke="black" points="26,-67.5 26,-86.5 109,-86.5 109,-67.5 26,-67.5"/>
<text text-anchor="middle" x="67.5" y="-74.5" font-family="Helvetica,sans-Serif" font-size="10.00">SDMCallbacks</text>
</a>
</g>
</g>
<!-- Node2&#45;&gt;Node1 -->
<g id="edge1" class="edge">
<title>Node2&#45;&gt;Node1</title>
<path fill="none" stroke="#9a32cd" stroke-dasharray="5,2" d="M82.61,-59.63C94.34,-46.92 110.15,-29.8 119.54,-19.63"/>
<polygon fill="#9a32cd" stroke="#9a32cd" points="79.8,-57.51 75.59,-67.23 84.95,-62.26 79.8,-57.51"/>
<text text-anchor="middle" x="124" y="-41" font-family="Helvetica,sans-Serif" font-size="10.00"> callbacks</text>
</g>
<!-- Node3 -->
<g id="node3" class="node">
<title>Node3</title>
<g id="a_node3"><a xlink:href="group__secure__debug__manager.html#union_s_d_m_architecture_callbacks" target="_top" xlink:title="Union to map callback structure for the specific debug architecture.">
<polygon fill="white" stroke="black" points="0,-134.5 0,-153.5 135,-153.5 135,-134.5 0,-134.5"/>
<text text-anchor="middle" x="67.5" y="-141.5" font-family="Helvetica,sans-Serif" font-size="10.00">SDMArchitectureCallbacks</text>
</a>
</g>
</g>
<!-- Node3&#45;&gt;Node2 -->
<g id="edge2" class="edge">
<title>Node3&#45;&gt;Node2</title>
<path fill="none" stroke="#9a32cd" stroke-dasharray="5,2" d="M67.5,-124.04C67.5,-111.67 67.5,-96.12 67.5,-86.63"/>
<polygon fill="#9a32cd" stroke="#9a32cd" points="64,-124.23 67.5,-134.23 71,-124.23 64,-124.23"/>
<text text-anchor="middle" x="116.5" y="-108" font-family="Helvetica,sans-Serif" font-size="10.00"> architectureCallbacks</text>
</g>
<!-- Node4 -->
<g id="node4" class="node">
<title>Node4</title>
<g id="a_node4"><a xlink:href="struct_s_d_m_arm_a_d_i_callbacks.html" target="_top" xlink:title="Arm ADI architecture&#45;specific callbacks.">
<polygon fill="white" stroke="black" points="8.5,-201.5 8.5,-220.5 126.5,-220.5 126.5,-201.5 8.5,-201.5"/>
<text text-anchor="middle" x="67.5" y="-208.5" font-family="Helvetica,sans-Serif" font-size="10.00">SDMArmADICallbacks</text>
</a>
</g>
</g>
<!-- Node4&#45;&gt;Node3 -->
<g id="edge3" class="edge">
<title>Node4&#45;&gt;Node3</title>
<path fill="none" stroke="#9a32cd" stroke-dasharray="5,2" d="M67.5,-191.04C67.5,-178.67 67.5,-163.12 67.5,-153.63"/>
<polygon fill="#9a32cd" stroke="#9a32cd" points="64,-191.23 67.5,-201.23 71,-191.23 64,-191.23"/>
<text text-anchor="middle" x="108" y="-175" font-family="Helvetica,sans-Serif" font-size="10.00"> armADICallbacks</text>
</g>
<!-- Node5 -->
<g id="node5" class="node">
<title>Node5</title>
<g id="a_node5"><a xlink:href="group__secure__debug__manager.html#struct_s_d_m_default_device_info" target="_top" xlink:title="Information about the default device.">
<polygon fill="white" stroke="black" points="127.5,-67.5 127.5,-86.5 245.5,-86.5 245.5,-67.5 127.5,-67.5"/>
<text text-anchor="middle" x="186.5" y="-74.5" font-family="Helvetica,sans-Serif" font-size="10.00">SDMDefaultDeviceInfo</text>
</a>
</g>
</g>
<!-- Node5&#45;&gt;Node1 -->
<g id="edge4" class="edge">
<title>Node5&#45;&gt;Node1</title>
<path fill="none" stroke="#9a32cd" stroke-dasharray="5,2" d="M171.65,-59.63C160.11,-46.92 144.56,-29.8 135.33,-19.63"/>
<polygon fill="#9a32cd" stroke="#9a32cd" points="169.23,-62.18 178.54,-67.23 174.41,-57.48 169.23,-62.18"/>
<text text-anchor="middle" x="200.5" y="-41" font-family="Helvetica,sans-Serif" font-size="10.00"> defaultDeviceInfo</text>
</g>
</g>
</svg>
