<?xml version="1.0" encoding="UTF-8" standalone="no"?>
<!DOCTYPE svg PUBLIC "-//W3C//DTD SVG 1.1//EN"
 "http://www.w3.org/Graphics/SVG/1.1/DTD/svg11.dtd">
<!-- Generated by graphviz version 2.44.1 (20200629.0846)
 -->
<!-- Title: SDMCallbacks Pages: 1 -->
<svg width="174pt" height="162pt"
 viewBox="0.00 0.00 173.50 162.00" xmlns="http://www.w3.org/2000/svg" xmlns:xlink="http://www.w3.org/1999/xlink">
<g id="graph0" class="graph" transform="scale(1 1) rotate(0) translate(4 158)">
<title>SDMCallbacks</title>
<polygon fill="white" stroke="transparent" points="-4,4 -4,-158 169.5,-158 169.5,4 -4,4"/>
<!-- Node1 -->
<g id="node1" class="node">
<title>Node1</title>
<g id="a_node1"><a xlink:title="Collection of common callback functions provided by the debugger.">
<polygon fill="#bfbfbf" stroke="black" points="26,-0.5 26,-19.5 109,-19.5 109,-0.5 26,-0.5"/>
<text text-anchor="middle" x="67.5" y="-7.5" font-family="Helvetica,sans-Serif" font-size="10.00">SDMCallbacks</text>
</a>
</g>
</g>
<!-- Node2 -->
<g id="node2" class="node">
<title>Node2</title>
<g id="a_node2"><a xlink:href="group__secure__debug__manager.html#union_s_d_m_architecture_callbacks" target="_top" xlink:title="Union to map callback structure for the specific debug architecture.">
<polygon fill="white" stroke="black" points="0,-67.5 0,-86.5 135,-86.5 135,-67.5 0,-67.5"/>
<text text-anchor="middle" x="67.5" y="-74.5" font-family="Helvetica,sans-Serif" font-size="10.00">SDMArchitectureCallbacks</text>
</a>
</g>
</g>
<!-- Node2&#45;&gt;Node1 -->
<g id="edge1" class="edge">
<title>Node2&#45;&gt;Node1</title>
<path fill="none" stroke="#9a32cd" stroke-dasharray="5,2" d="M67.5,-57.04C67.5,-44.67 67.5,-29.12 67.5,-19.63"/>
<polygon fill="#9a32cd" stroke="#9a32cd" points="64,-57.23 67.5,-67.23 71,-57.23 64,-57.23"/>
<text text-anchor="middle" x="116.5" y="-41" font-family="Helvetica,sans-Serif" font-size="10.00"> architectureCallbacks</text>
</g>
<!-- Node3 -->
<g id="node3" class="node">
<title>Node3</title>
<g id="a_node3"><a xlink:href="struct_s_d_m_arm_a_d_i_callbacks.html" target="_top" xlink:title="Arm ADI architecture&#45;specific callbacks.">
<polygon fill="white" stroke="black" points="8.5,-134.5 8.5,-153.5 126.5,-153.5 126.5,-134.5 8.5,-134.5"/>
<text text-anchor="middle" x="67.5" y="-141.5" font-family="Helvetica,sans-Serif" font-size="10.00">SDMArmADICallbacks</text>
</a>
</g>
</g>
<!-- Node3&#45;&gt;Node2 -->
<g id="edge2" class="edge">
<title>Node3&#45;&gt;Node2</title>
<path fill="none" stroke="#9a32cd" stroke-dasharray="5,2" d="M67.5,-124.04C67.5,-111.67 67.5,-96.12 67.5,-86.63"/>
<polygon fill="#9a32cd" stroke="#9a32cd" points="64,-124.23 67.5,-134.23 71,-124.23 64,-124.23"/>
<text text-anchor="middle" x="108" y="-108" font-family="Helvetica,sans-Serif" font-size="10.00"> armADICallbacks</text>
</g>
</g>
</svg>
